# Blender v2.77 (sub 0) OBJ File: 'cube.blend'
# www.blender.org
v -0.500000 -0.500000 0.500000
v -0.500000 0.500000 0.500000
v -0.500000 -0.500000 -0.500000
v -0.500000 0.500000 -0.500000
v 0.500000 -0.500000 0.500000
v 0.500000 0.500000 0.500000
v 0.500000 -0.500000 -0.500000
v 0.500000 0.500000 -0.500000
vt -0.000000 0.500000
vt 0.500000 0.500000
vt 0.500000 1.000000
vt -0.000000 1.000000
vt -0.000000 0.500000
vt 0.500000 0.500000
vt 0.500000 1.000000
vt -0.000000 1.000000
vt -0.000000 0.500000
vt 0.500000 0.500000
vt 0.500000 1.000000
vt -0.000000 1.000000
vt -0.000000 0.500000
vt 0.500000 0.500000
vt 0.500000 1.000000
vt -0.000000 1.000000
vt -0.000000 0.500000
vt 0.500000 0.500000
vt 0.500000 1.000000
vt -0.000000 1.000000
vn -1.000000 0.000000 0.000000
vn 0.000000 0.000000 -1.000000
vn 1.000000 0.000000 0.000000
vn 0.000000 0.000000 1.000000
vn 0.000000 -1.000000 0.000000
vn 0.000000 1.000000 0.000000
s off
f 2/1/1 4/2/1 3/3/1 1/4/1
f 4/5/2 8/6/2 7/7/2 3/8/2
f 8/9/3 6/10/3 5/11/3 7/12/3
f 6/13/4 2/14/4 1/15/4 5/16/4
f 1/17/5 3/18/5 7/7/5 5/16/5
f 6/13/6 8/6/6 4/19/6 2/20/6
